<mxfile host="www.draw.io" modified="2019-11-08T06:43:31.716Z" agent="Mozilla/5.0 (Windows NT 10.0; Win64; x64) AppleWebKit/537.36 (KHTML, like Gecko) Chrome/68.0.3440.75 Safari/537.36" etag="aa_7kLUBpTwMUxRLswiK" version="12.2.2" type="github" pages="1">
  <diagram name="Page-1" id="9361dd3d-8414-5efd-6122-117bd74ce7a7">
    <mxGraphModel dx="1408" dy="736" grid="1" gridSize="10" guides="1" tooltips="1" connect="1" arrows="1" fold="1" page="0" pageScale="1.5" pageWidth="826" pageHeight="1169" background="#ffffff" math="0" shadow="0">
      <root>
        <mxCell id="0"/>
        <mxCell id="1" parent="0"/>
        <mxCell id="69" value="" style="fillColor=#DEE8FF;strokeColor=none" parent="1" vertex="1">
          <mxGeometry x="40" y="10" width="850" height="820" as="geometry"/>
        </mxCell>
        <mxCell id="20" value="" style="fillColor=#CCD5EB" parent="1" vertex="1">
          <mxGeometry x="140" y="410" width="670" height="400" as="geometry"/>
        </mxCell>
        <mxCell id="2" value="" style="fillColor=#CC4125;strokeColor=#660000" parent="1" vertex="1">
          <mxGeometry x="200" y="150" width="10" height="130" as="geometry"/>
        </mxCell>
        <mxCell id="3" value="generate_sheet()" style="edgeStyle=none;verticalLabelPosition=top;verticalAlign=bottom;labelPosition=left;align=right" parent="1" edge="1">
          <mxGeometry x="110" y="49.5" width="100" height="100" as="geometry">
            <mxPoint x="110" y="149.5" as="sourcePoint"/>
            <mxPoint x="200" y="149.5" as="targetPoint"/>
          </mxGeometry>
        </mxCell>
        <mxCell id="4" value=":Generater" style="shadow=1;fillColor=#A2C4C9;strokeColor=none" parent="1" vertex="1">
          <mxGeometry x="152.5" y="60" width="105" height="50" as="geometry"/>
        </mxCell>
        <mxCell id="6" value="" style="fillColor=#CC4125;strokeColor=#660000" parent="1" vertex="1">
          <mxGeometry x="326.5" y="180" width="10" height="80" as="geometry"/>
        </mxCell>
        <mxCell id="7" value="&lt;&lt;javascript&gt;&gt;&#xa;:SheetWriter" style="shadow=1;fillColor=#A2C4C9;strokeColor=none" parent="1" vertex="1">
          <mxGeometry x="279" y="60" width="105" height="50" as="geometry"/>
        </mxCell>
        <mxCell id="8" value="" style="edgeStyle=none;endArrow=none;dashed=1" parent="1" source="7" target="6" edge="1">
          <mxGeometry x="256.3350694444445" y="165" width="100" height="100" as="geometry">
            <mxPoint x="331.2588734567901" y="110" as="sourcePoint"/>
            <mxPoint x="331.5761959876544" y="165" as="targetPoint"/>
          </mxGeometry>
        </mxCell>
        <mxCell id="9" value="init()" style="edgeStyle=none;verticalLabelPosition=top;verticalAlign=bottom" parent="1" edge="1">
          <mxGeometry x="220" y="92" width="100" height="100" as="geometry">
            <mxPoint x="210" y="179.5" as="sourcePoint"/>
            <mxPoint x="340" y="179.5" as="targetPoint"/>
          </mxGeometry>
        </mxCell>
        <mxCell id="11" value="" style="edgeStyle=none;verticalLabelPosition=top;verticalAlign=bottom;endArrow=none;startArrow=classic;dashed=1" parent="1" edge="1">
          <mxGeometry x="220" y="172.25887345679013" width="100" height="100" as="geometry">
            <mxPoint x="210" y="259.7588734567901" as="sourcePoint"/>
            <mxPoint x="340" y="259.7588734567901" as="targetPoint"/>
          </mxGeometry>
        </mxCell>
        <mxCell id="12" value="" style="edgeStyle=none;verticalLabelPosition=top;verticalAlign=bottom;labelPosition=left;align=right;endArrow=none;startArrow=classic;dashed=1" parent="1" edge="1">
          <mxGeometry x="110" y="179.75887345679013" width="100" height="100" as="geometry">
            <mxPoint x="110" y="279.7588734567901" as="sourcePoint"/>
            <mxPoint x="200" y="279.7588734567901" as="targetPoint"/>
          </mxGeometry>
        </mxCell>
        <mxCell id="13" value="&lt;&lt;create&gt;&gt;" style="edgeStyle=none;verticalLabelPosition=top;verticalAlign=bottom;dashed=1" parent="1" edge="1">
          <mxGeometry x="369.45524691358025" y="113.91550925925924" width="100" height="100" as="geometry">
            <mxPoint x="336.5" y="201.20563271604937" as="sourcePoint"/>
            <mxPoint x="446.5" y="201.20563271604937" as="targetPoint"/>
          </mxGeometry>
        </mxCell>
        <mxCell id="15" value="&lt;&lt;javascript&gt;&gt;&#xa;:Elements" style="shadow=1;fillColor=#A2C4C9;strokeColor=none" parent="1" vertex="1">
          <mxGeometry x="406.2839506172839" y="169.99999999999997" width="105" height="50" as="geometry"/>
        </mxCell>
        <mxCell id="16" value="" style="edgeStyle=none;endArrow=none;dashed=1;" parent="1" source="15" target="noIWvRsdRNr4DkYg7wJF-89" edge="1">
          <mxGeometry x="421.042824074074" y="270" width="100" height="100" as="geometry">
            <mxPoint x="498.542824074074" y="219.99999999999997" as="sourcePoint"/>
            <mxPoint x="498.542824074074" y="239.99999999999997" as="targetPoint"/>
          </mxGeometry>
        </mxCell>
        <mxCell id="17" value="" style="fillColor=#CC4125;strokeColor=#660000" parent="1" vertex="1">
          <mxGeometry x="453.7839506172839" y="244.3942901234568" width="10" height="130" as="geometry"/>
        </mxCell>
        <mxCell id="19" value="&lt;&lt;parse&gt;&gt;" style="edgeStyle=elbowEdgeStyle;elbow=vertical;verticalLabelPosition=top;verticalAlign=bottom" parent="1" source="6" target="17" edge="1">
          <mxGeometry x="334" y="290" width="100" height="100" as="geometry">
            <mxPoint x="334" y="390" as="sourcePoint"/>
            <mxPoint x="434" y="290" as="targetPoint"/>
          </mxGeometry>
        </mxCell>
        <mxCell id="21" value="" style="fillColor=#CC4125;strokeColor=#660000" parent="1" vertex="1">
          <mxGeometry x="585" y="269.3942901234568" width="10" height="80" as="geometry"/>
        </mxCell>
        <mxCell id="22" value="&lt;&lt;javascript&gt;&gt;&#xa;:Parameter" style="shadow=1;fillColor=#A2C4C9;strokeColor=none" parent="1" vertex="1">
          <mxGeometry x="537.5" y="60" width="105" height="50" as="geometry"/>
        </mxCell>
        <mxCell id="23" value="" style="edgeStyle=none;endArrow=none;dashed=1" parent="1" source="22" target="21" edge="1">
          <mxGeometry x="529.4878472222224" y="174.99999999999997" width="100" height="100" as="geometry">
            <mxPoint x="589.6527777777778" y="110" as="sourcePoint"/>
            <mxPoint x="589.6527777777778" y="260" as="targetPoint"/>
          </mxGeometry>
        </mxCell>
        <mxCell id="24" value="&lt;&lt;javascript&gt;&gt;&#xa;:Style" style="shadow=1;fillColor=#A2C4C9;strokeColor=none" parent="1" vertex="1">
          <mxGeometry x="665" y="60" width="105" height="50" as="geometry"/>
        </mxCell>
        <mxCell id="25" value="" style="edgeStyle=none;endArrow=none;dashed=1" parent="1" source="24" target="26" edge="1">
          <mxGeometry x="642.3350694444446" y="165" width="100" height="100" as="geometry">
            <mxPoint x="717.2588734567901" y="110" as="sourcePoint"/>
            <mxPoint x="717.5761959876544" y="165" as="targetPoint"/>
          </mxGeometry>
        </mxCell>
        <mxCell id="26" value="" style="fillColor=#CC4125;strokeColor=#660000" parent="1" vertex="1">
          <mxGeometry x="712.4999999999999" y="289.3942901234568" width="10" height="40" as="geometry"/>
        </mxCell>
        <mxCell id="27" value="&lt;&lt;getContent&gt;&gt;" style="edgeStyle=elbowEdgeStyle;elbow=vertical;verticalLabelPosition=top;verticalAlign=bottom" parent="1" source="17" target="21" edge="1">
          <mxGeometry x="524" y="270" width="100" height="100" as="geometry">
            <mxPoint x="524" y="370" as="sourcePoint"/>
            <mxPoint x="624" y="270" as="targetPoint"/>
            <Array as="points">
              <mxPoint x="574" y="270"/>
            </Array>
          </mxGeometry>
        </mxCell>
        <mxCell id="28" value="errors" style="edgeStyle=elbowEdgeStyle;elbow=vertical;dashed=1;verticalLabelPosition=bottom;verticalAlign=top" parent="1" source="21" target="17" edge="1">
          <mxGeometry x="534" y="280" width="100" height="100" as="geometry">
            <mxPoint x="513.7839506172838" y="280" as="sourcePoint"/>
            <mxPoint x="664" y="280" as="targetPoint"/>
            <Array as="points">
              <mxPoint x="577" y="348"/>
            </Array>
          </mxGeometry>
        </mxCell>
        <mxCell id="33" value="" style="edgeStyle=elbowEdgeStyle;elbow=horizontal;endArrow=none;dashed=1" parent="1" source="4" target="2" edge="1">
          <mxGeometry x="230.00000000000003" y="310" width="100" height="100" as="geometry">
            <mxPoint x="230.00000000000003" y="410" as="sourcePoint"/>
            <mxPoint x="330" y="310" as="targetPoint"/>
          </mxGeometry>
        </mxCell>
        <mxCell id="34" value="getStyle()" style="edgeStyle=elbowEdgeStyle;elbow=vertical;verticalLabelPosition=top;verticalAlign=bottom" parent="1" edge="1">
          <mxGeometry x="465" y="261.7361111111111" width="100" height="100" as="geometry">
            <mxPoint x="595" y="291.1304012345679" as="sourcePoint"/>
            <mxPoint x="712.4999999999999" y="291.1304012345679" as="targetPoint"/>
            <Array as="points"/>
          </mxGeometry>
        </mxCell>
        <mxCell id="35" value="errors" style="edgeStyle=elbowEdgeStyle;elbow=vertical;dashed=1;verticalLabelPosition=bottom;verticalAlign=top" parent="1" edge="1">
          <mxGeometry x="475" y="309.65277777777777" width="100" height="100" as="geometry">
            <mxPoint x="712.4999999999999" y="329.0470679012346" as="sourcePoint"/>
            <mxPoint x="595" y="329.0470679012346" as="targetPoint"/>
            <Array as="points"/>
          </mxGeometry>
        </mxCell>
        <mxCell id="38" value="" style="edgeStyle=elbowEdgeStyle;elbow=horizontal;endArrow=none;dashed=1" parent="1" edge="1">
          <mxGeometry x="847.2588734567901" y="240" width="100" height="100" as="geometry">
            <mxPoint x="717.2588734567901" y="329.3942901234568" as="sourcePoint"/>
            <mxPoint x="717.2588734567901" y="370" as="targetPoint"/>
            <Array as="points">
              <mxPoint x="717.2588734567901" y="350"/>
            </Array>
          </mxGeometry>
        </mxCell>
        <mxCell id="39" value="" style="ellipse;fillColor=none" parent="1" vertex="1">
          <mxGeometry x="717.5000000000001" y="304.3942901234568" width="9.999999999999886" height="10" as="geometry"/>
        </mxCell>
        <mxCell id="40" value=" - font&#xa;- border&#xa;- color&#xa; - position check" style="shape=note;align=left" parent="1" vertex="1">
          <mxGeometry x="747.9729938271605" y="189.67361111111111" width="120.02700617283949" height="109.82638888888889" as="geometry"/>
        </mxCell>
        <mxCell id="41" value="" style="edgeStyle=none;endArrow=none;dashed=1" parent="1" target="39" edge="1">
          <mxGeometry x="945" y="180" width="100" height="100" as="geometry">
            <mxPoint x="744.9729938271603" y="289.1451134074571" as="sourcePoint"/>
            <mxPoint x="1045" y="180" as="targetPoint"/>
          </mxGeometry>
        </mxCell>
        <mxCell id="42" value="" style="fillColor=#CC4125;strokeColor=#660000" parent="1" vertex="1">
          <mxGeometry x="200" y="360" width="10" height="220" as="geometry"/>
        </mxCell>
        <mxCell id="43" value="             &lt;&lt;callback&gt;&gt;                                " style="edgeStyle=elbowEdgeStyle;elbow=vertical;dashed=0;verticalLabelPosition=top;verticalAlign=bottom;align=right" parent="1" source="17" target="42" edge="1">
          <mxGeometry x="190" y="329.75887345679007" width="100" height="100" as="geometry">
            <mxPoint x="500" y="310" as="sourcePoint"/>
            <mxPoint x="220" y="370" as="targetPoint"/>
            <Array as="points"/>
          </mxGeometry>
        </mxCell>
        <mxCell id="44" value="" style="edgeStyle=none;dashed=1;endArrow=none" parent="1" source="2" target="42" edge="1">
          <mxGeometry x="50" y="300" width="100" height="100" as="geometry">
            <mxPoint x="50" y="400" as="sourcePoint"/>
            <mxPoint x="150" y="300" as="targetPoint"/>
          </mxGeometry>
        </mxCell>
        <mxCell id="46" value="" style="edgeStyle=elbowEdgeStyle;elbow=vertical;endArrow=none" parent="1" source="42" edge="1">
          <mxGeometry x="60" y="310" width="100" height="100" as="geometry">
            <mxPoint x="60" y="410" as="sourcePoint"/>
            <mxPoint x="150" y="360" as="targetPoint"/>
          </mxGeometry>
        </mxCell>
        <mxCell id="47" value="{100..600ms}" style="edgeStyle=elbowEdgeStyle;elbow=horizontal;startArrow=open;endArrow=open;labelPosition=left;align=right" parent="1" edge="1">
          <mxGeometry x="61.20563271604938" y="290" width="100" height="100" as="geometry">
            <mxPoint x="181.20563271604937" y="280" as="sourcePoint"/>
            <mxPoint x="181.20563271604937" y="360" as="targetPoint"/>
          </mxGeometry>
        </mxCell>
        <mxCell id="48" value="" style="fillColor=#CC4125;strokeColor=#660000" parent="1" vertex="1">
          <mxGeometry x="326.5" y="464.1666666666667" width="10" height="95.83333333333331" as="geometry"/>
        </mxCell>
        <mxCell id="51" value="write()" style="edgeStyle=elbowEdgeStyle;elbow=vertical;verticalLabelPosition=top;verticalAlign=bottom" parent="1" edge="1">
          <mxGeometry x="212.5" y="469.58333333333337" width="100" height="100" as="geometry">
            <mxPoint x="210" y="469.58333333333337" as="sourcePoint"/>
            <mxPoint x="342.5" y="469.58333333333337" as="targetPoint"/>
            <Array as="points"/>
          </mxGeometry>
        </mxCell>
        <mxCell id="52" value="" style="edgeStyle=none;endArrow=none;dashed=1" parent="1" source="6" target="48" edge="1">
          <mxGeometry x="360.5711805555559" y="339.6971450617284" width="100" height="100" as="geometry">
            <mxPoint x="435.7361111111112" y="284.6971450617284" as="sourcePoint"/>
            <mxPoint x="435.7361111111112" y="464.0914351851852" as="targetPoint"/>
          </mxGeometry>
        </mxCell>
        <mxCell id="53" value="sheetWrite()" style="edgeStyle=elbowEdgeStyle;elbow=vertical;verticalLabelPosition=top;verticalAlign=bottom;entryX=0.1;entryY=0.1;entryDx=0;entryDy=0;entryPerimeter=0;" parent="1" edge="1" target="noIWvRsdRNr4DkYg7wJF-89">
          <mxGeometry x="514" y="436.8055555555556" width="100" height="100" as="geometry">
            <mxPoint x="336.5" y="477.56944444444446" as="sourcePoint"/>
            <mxPoint x="494" y="478" as="targetPoint"/>
            <Array as="points"/>
          </mxGeometry>
        </mxCell>
        <mxCell id="54" value="" style="edgeStyle=elbowEdgeStyle;elbow=vertical;dashed=1;verticalLabelPosition=bottom;verticalAlign=top;exitX=-0.2;exitY=0.9;exitDx=0;exitDy=0;exitPerimeter=0;" parent="1" edge="1" source="noIWvRsdRNr4DkYg7wJF-89">
          <mxGeometry x="514" y="549.0779320987654" width="100" height="100" as="geometry">
            <mxPoint x="494" y="542" as="sourcePoint"/>
            <mxPoint x="336.49999999999994" y="541.7361111111111" as="targetPoint"/>
            <Array as="points"/>
          </mxGeometry>
        </mxCell>
        <mxCell id="66" value="" style="fillColor=#CC4125;strokeColor=#660000" parent="1" vertex="1">
          <mxGeometry x="200" y="600" width="10" height="130" as="geometry"/>
        </mxCell>
        <mxCell id="67" value="" style="edgeStyle=elbowEdgeStyle;elbow=vertical;dashed=1;verticalLabelPosition=bottom;verticalAlign=top;entryX=0.9;entryY=0.864;entryDx=0;entryDy=0;entryPerimeter=0;" parent="1" edge="1" target="42">
          <mxGeometry x="507.50000000000006" y="664.3418209876543" width="100" height="100" as="geometry">
            <mxPoint x="342.5" y="549.5" as="sourcePoint"/>
            <mxPoint x="250" y="550" as="targetPoint"/>
            <Array as="points"/>
          </mxGeometry>
        </mxCell>
        <mxCell id="68" value="&lt;&lt;callback&gt;&gt;" style="edgeStyle=elbowEdgeStyle;elbow=vertical;dashed=1;verticalLabelPosition=bottom;verticalAlign=bottom;exitX=0.137;exitY=0;exitDx=0;exitDy=0;exitPerimeter=0;entryX=1;entryY=0.75;entryDx=0;entryDy=0;" parent="1" target="66" edge="1">
          <mxGeometry x="590" y="543.5779320987654" width="100" height="100" as="geometry">
            <mxPoint x="340" y="700.5" as="sourcePoint"/>
            <mxPoint x="260" y="700.5" as="targetPoint"/>
            <Array as="points"/>
          </mxGeometry>
        </mxCell>
        <mxCell id="71" value="程序设计" style="rounded=1;fontStyle=1;fillColor=#FFD966;strokeColor=none" parent="1" vertex="1">
          <mxGeometry x="50" y="20" width="150" height="30" as="geometry"/>
        </mxCell>
        <mxCell id="72" value="opt" style="rounded=1;fontStyle=1;fillColor=#FFD966;strokeColor=none" parent="1" vertex="1">
          <mxGeometry x="152.5" y="420" width="87.5" height="30" as="geometry"/>
        </mxCell>
        <mxCell id="75" value="ref" style="rounded=1;fontStyle=1;fillColor=#FFD966;strokeColor=none" parent="1" vertex="1">
          <mxGeometry x="196.25" y="632.8935185185186" width="53.75" height="25" as="geometry"/>
        </mxCell>
        <mxCell id="76" value="" style="align=left;fillColor=#BFC8DB" parent="1" vertex="1">
          <mxGeometry x="190" y="716" width="600" height="61" as="geometry"/>
        </mxCell>
        <mxCell id="77" value="ref" style="rounded=1;fontStyle=1;fillColor=#FFD966;strokeColor=none" parent="1" vertex="1">
          <mxGeometry x="196.24999999999997" y="707.6157407407409" width="53.75" height="25" as="geometry"/>
        </mxCell>
        <mxCell id="78" value="输出文档" style="text;align=left" parent="1" vertex="1">
          <mxGeometry x="304" y="720" width="300" height="26" as="geometry"/>
        </mxCell>
        <mxCell id="82" value="" style="edgeStyle=elbowEdgeStyle;elbow=vertical;endArrow=none" parent="1" edge="1">
          <mxGeometry x="59.999999999999986" y="419.7106481481482" width="100" height="100" as="geometry">
            <mxPoint x="200" y="469.7106481481482" as="sourcePoint"/>
            <mxPoint x="149.99999999999997" y="469.7106481481482" as="targetPoint"/>
          </mxGeometry>
        </mxCell>
        <mxCell id="83" value="" style="edgeStyle=elbowEdgeStyle;elbow=vertical;endArrow=none" parent="1" edge="1">
          <mxGeometry x="60" y="499.71064814814815" width="100" height="100" as="geometry">
            <mxPoint x="200.00000000000003" y="549.7106481481482" as="sourcePoint"/>
            <mxPoint x="150" y="549.7106481481482" as="targetPoint"/>
          </mxGeometry>
        </mxCell>
        <mxCell id="84" value="" style="edgeStyle=elbowEdgeStyle;elbow=vertical;endArrow=none" parent="1" edge="1">
          <mxGeometry x="59.999999999999986" y="559.7106481481482" width="100" height="100" as="geometry">
            <mxPoint x="200" y="609.7106481481482" as="sourcePoint"/>
            <mxPoint x="149.99999999999997" y="609.7106481481482" as="targetPoint"/>
          </mxGeometry>
        </mxCell>
        <mxCell id="85" value="" style="edgeStyle=elbowEdgeStyle;elbow=vertical;endArrow=none" parent="1" edge="1">
          <mxGeometry x="49.99999999999999" y="649.4328703703704" width="100" height="100" as="geometry">
            <mxPoint x="190.00000000000003" y="699.4328703703704" as="sourcePoint"/>
            <mxPoint x="140" y="699.4328703703704" as="targetPoint"/>
          </mxGeometry>
        </mxCell>
        <mxCell id="86" value="" style="edgeStyle=elbowEdgeStyle;elbow=vertical;endArrow=none" parent="1" edge="1">
          <mxGeometry x="49.99999999999993" y="709.9884259259259" width="100" height="100" as="geometry">
            <mxPoint x="189.99999999999994" y="759.9884259259259" as="sourcePoint"/>
            <mxPoint x="139.99999999999994" y="759.9884259259259" as="targetPoint"/>
          </mxGeometry>
        </mxCell>
        <mxCell id="87" value="{5..50ms}" style="edgeStyle=elbowEdgeStyle;elbow=horizontal;startArrow=open;endArrow=open;labelPosition=left;align=right" parent="1" edge="1">
          <mxGeometry x="41.44675925925927" y="479.1666666666667" width="100" height="100" as="geometry">
            <mxPoint x="161.44675925925927" y="469.1666666666667" as="sourcePoint"/>
            <mxPoint x="161.44675925925927" y="549.1666666666667" as="targetPoint"/>
          </mxGeometry>
        </mxCell>
        <mxCell id="88" value="{1..500ms}" style="edgeStyle=elbowEdgeStyle;elbow=horizontal;startArrow=open;endArrow=open;labelPosition=left;align=right" parent="1" edge="1">
          <mxGeometry x="42.89351851851853" y="560" width="100" height="100" as="geometry">
            <mxPoint x="161.44675925925927" y="550" as="sourcePoint"/>
            <mxPoint x="161.44675925925927" y="610" as="targetPoint"/>
          </mxGeometry>
        </mxCell>
        <mxCell id="89" value="{10..50ms}" style="edgeStyle=elbowEdgeStyle;elbow=horizontal;startArrow=open;endArrow=open;labelPosition=left;align=right" parent="1" edge="1">
          <mxGeometry width="100" height="100" as="geometry">
            <mxPoint x="153.94675925925927" y="700.2777777777778" as="sourcePoint"/>
            <mxPoint x="153.94675925925927" y="760.2777777777778" as="targetPoint"/>
            <mxPoint x="-4.236111111111107" y="-0.2777777777777883" as="offset"/>
          </mxGeometry>
        </mxCell>
        <mxCell id="noIWvRsdRNr4DkYg7wJF-89" value="" style="fillColor=#CC4125;strokeColor=#660000" vertex="1" parent="1">
          <mxGeometry x="454" y="470" width="10" height="80" as="geometry"/>
        </mxCell>
        <mxCell id="noIWvRsdRNr4DkYg7wJF-90" value="" style="fillColor=#CC4125;strokeColor=#660000" vertex="1" parent="1">
          <mxGeometry x="324" y="605" width="10" height="105" as="geometry"/>
        </mxCell>
        <mxCell id="74" value="错误处理" style="fillColor=#BFC8DB" parent="1" vertex="1">
          <mxGeometry x="190" y="625" width="180" height="61" as="geometry"/>
        </mxCell>
        <mxCell id="noIWvRsdRNr4DkYg7wJF-92" value="flush" style="edgeStyle=elbowEdgeStyle;elbow=vertical;verticalLabelPosition=top;verticalAlign=bottom" edge="1" parent="1">
          <mxGeometry x="212.5" y="610.0833333333334" width="100" height="100" as="geometry">
            <mxPoint x="210" y="610.0833333333335" as="sourcePoint"/>
            <mxPoint x="342.5" y="610.0833333333335" as="targetPoint"/>
            <Array as="points"/>
          </mxGeometry>
        </mxCell>
      </root>
    </mxGraphModel>
  </diagram>
</mxfile>
